<svg width="500" height="500" viewBox="0 0 500 500" fill="none" xmlns="http://www.w3.org/2000/svg">
<g clip-path="url(#clip0_226_1060)">
<path d="M476.563 266.719H441.797C440.761 266.719 439.767 267.13 439.035 267.863C438.302 268.596 437.891 269.589 437.891 270.625C437.891 271.661 438.302 272.655 439.035 273.387C439.767 274.12 440.761 274.531 441.797 274.531H476.563C477.592 274.511 478.574 274.093 479.303 273.365C480.031 272.637 480.449 271.655 480.469 270.625C480.469 269.589 480.057 268.596 479.325 267.863C478.592 267.13 477.599 266.719 476.563 266.719ZM430.625 266.719H429.063C428.027 266.719 427.033 267.13 426.3 267.863C425.568 268.596 425.156 269.589 425.156 270.625C425.156 271.661 425.568 272.655 426.3 273.387C427.033 274.12 428.027 274.531 429.063 274.531H430.625C431.661 274.531 432.655 274.12 433.387 273.387C434.12 272.655 434.531 271.661 434.531 270.625C434.531 269.589 434.12 268.596 433.387 267.863C432.655 267.13 431.661 266.719 430.625 266.719ZM397.734 167.422L398.125 168.125C398.687 168.836 399.398 169.414 400.208 169.819C401.018 170.224 401.907 170.446 402.813 170.469C404.075 170.426 405.308 170.077 406.406 169.453C407.434 170.108 408.625 170.46 409.844 170.469C410.748 170.454 411.636 170.227 412.437 169.806C413.237 169.386 413.928 168.783 414.453 168.047L414.844 167.422C415.973 164.281 415.886 160.831 414.599 157.751C413.312 154.672 410.919 152.185 407.891 150.781C407.371 150.472 406.777 150.308 406.172 150.308C405.567 150.308 404.973 150.472 404.453 150.781C401.467 152.226 399.126 154.73 397.884 157.806C396.642 160.881 396.589 164.309 397.734 167.422ZM425.859 122.188H424.141C421.794 121.975 419.428 122.255 417.195 123.008C414.962 123.761 412.911 124.972 411.172 126.563C409.989 127.897 409.134 129.488 408.673 131.21C408.212 132.932 408.158 134.738 408.516 136.484C409.663 140.759 412.228 144.517 415.791 147.143C419.354 149.769 423.702 151.107 428.125 150.938C429.695 150.947 431.251 150.64 432.701 150.036C434.15 149.432 435.463 148.543 436.563 147.422C440.141 143.019 442.001 137.467 441.797 131.797C441.484 122.656 428.438 122.188 425.859 122.188ZM404.297 136.484C404.655 134.738 404.601 132.932 404.14 131.21C403.679 129.488 402.823 127.897 401.641 126.563C399.861 124.934 397.759 123.696 395.472 122.929C393.184 122.162 390.761 121.883 388.359 122.109H387.109C379.844 122.109 371.484 124.609 371.016 131.797C370.854 137.461 372.709 142.999 376.25 147.422C377.341 148.554 378.653 149.451 380.104 150.055C381.555 150.66 383.115 150.96 384.688 150.938C389.394 150.921 393.969 149.386 397.734 146.563C399.44 145.4 400.898 143.91 402.024 142.18C403.15 140.45 403.923 138.515 404.297 136.484ZM420.234 178.984H419.609V178.438C419.412 177.826 419.026 177.293 418.506 176.914C417.987 176.535 417.361 176.33 416.719 176.328C416.08 176.308 415.454 176.506 414.942 176.889C414.431 177.273 414.066 177.819 413.906 178.438V178.984H409.844V178.438C409.657 177.819 409.274 177.279 408.752 176.898C408.23 176.518 407.599 176.318 406.953 176.328C406.313 176.342 405.693 176.551 405.176 176.928C404.659 177.305 404.27 177.832 404.063 178.438V178.984H400V178.438C399.798 177.831 399.41 177.303 398.891 176.929C398.372 176.555 397.749 176.354 397.109 176.354C396.47 176.354 395.847 176.555 395.328 176.929C394.809 177.303 394.421 177.831 394.219 178.438V178.984H393.594C393.187 178.984 392.784 179.066 392.409 179.224C392.035 179.382 391.695 179.613 391.411 179.904C391.127 180.196 390.904 180.541 390.756 180.919C390.608 181.298 390.536 181.703 390.547 182.109C390.567 182.925 390.905 183.7 391.489 184.269C392.073 184.838 392.856 185.157 393.672 185.156H394.219V185.703C394.421 186.31 394.809 186.838 395.328 187.212C395.847 187.586 396.47 187.787 397.109 187.787C397.749 187.787 398.372 187.586 398.891 187.212C399.41 186.838 399.798 186.31 400 185.703V185.156H404.063V185.703C404.26 186.154 404.561 186.551 404.941 186.864C405.321 187.176 405.77 187.394 406.25 187.5C406.893 187.498 407.518 187.293 408.038 186.914C408.557 186.536 408.943 186.002 409.141 185.391V184.844H413.203V185.391C413.382 186.009 413.757 186.552 414.271 186.938C414.786 187.325 415.411 187.534 416.055 187.534C416.698 187.534 417.324 187.325 417.838 186.938C418.352 186.552 418.727 186.009 418.906 185.391V184.844H419.453C420.187 184.727 420.856 184.352 421.338 183.786C421.821 183.22 422.086 182.501 422.086 181.758C422.086 181.014 421.821 180.295 421.338 179.73C420.856 179.164 420.187 178.789 419.453 178.672L420.234 178.984Z" fill="#5D5A88"/>
<path d="M478.906 3.98445H333.984C331.181 3.95351 328.399 4.47772 325.798 5.52688C323.198 6.57605 320.831 8.12941 318.834 10.0975C316.837 12.0655 315.249 14.4093 314.162 16.9939C313.075 19.5784 312.51 22.3525 312.5 25.1563V267.344C312.521 272.953 314.758 278.326 318.724 282.292C322.69 286.258 328.063 288.495 333.672 288.516H478.906C481.706 288.506 484.477 287.94 487.057 286.852C489.637 285.764 491.976 284.175 493.938 282.177C495.9 280.179 497.446 277.811 498.486 275.211C499.527 272.612 500.041 269.831 500 267.031V24.8438C499.918 19.2965 497.662 14.003 493.717 10.102C489.773 6.20103 484.454 4.00432 478.906 3.98445ZM492.188 267.031C492.188 270.568 490.793 273.963 488.307 276.478C485.821 278.994 482.443 280.428 478.906 280.469H333.984C332.2 280.5 330.428 280.175 328.77 279.514C327.113 278.853 325.603 277.868 324.331 276.617C323.058 275.366 322.047 273.874 321.357 272.228C320.667 270.583 320.312 268.816 320.312 267.031V24.8438C320.395 21.2935 321.879 17.92 324.441 15.4606C327.002 13.0012 330.434 11.6559 333.984 11.7188H478.906C482.443 11.76 485.821 13.1938 488.307 15.7094C490.793 18.225 492.188 21.6194 492.188 25.1563V267.031Z" fill="#5D5A88"/>
<path d="M475.859 32.1875H337.031C334.959 32.1875 332.972 33.0106 331.507 34.4757C330.042 35.9409 329.219 37.928 329.219 40V242.188C329.219 244.26 330.042 246.247 331.507 247.712C332.972 249.177 334.959 250 337.031 250H475.859C477.931 250 479.919 249.177 481.384 247.712C482.849 246.247 483.672 244.26 483.672 242.188V40.3125C483.714 39.2606 483.543 38.211 483.169 37.2267C482.796 36.2425 482.227 35.344 481.497 34.5851C480.767 33.8262 479.892 33.2226 478.923 32.8106C477.954 32.3986 476.912 32.1867 475.859 32.1875ZM445.312 158.594C446.024 159.75 446.494 161.038 446.696 162.38C446.897 163.723 446.825 165.092 446.484 166.406C445.937 167.774 445.114 169.015 444.065 170.05C443.017 171.085 441.766 171.893 440.391 172.422C439.646 172.708 438.988 173.182 438.481 173.798C437.974 174.414 437.636 175.151 437.5 175.938C436.797 179.844 436.172 186.016 435.703 190.469C435.612 191.529 435.237 192.545 434.619 193.411C434.001 194.277 433.161 194.961 432.187 195.391C424.029 199.046 415.19 200.935 406.25 200.935C397.31 200.935 388.471 199.046 380.313 195.391C379.339 194.961 378.499 194.277 377.881 193.411C377.263 192.545 376.888 191.529 376.797 190.469C376.328 186.016 375.703 179.922 375 175.859C374.833 175.097 374.492 174.383 374.005 173.773C373.517 173.163 372.895 172.674 372.187 172.344C370.801 171.841 369.535 171.052 368.472 170.03C367.409 169.007 366.572 167.773 366.016 166.406C365.404 163.748 365.822 160.956 367.188 158.594C367.806 157.519 368.035 156.264 367.835 155.04C367.636 153.816 367.021 152.698 366.094 151.875C359.688 146.016 357.422 135.859 359.062 120.625C362.891 85.3125 398.125 83.5156 405.156 83.5156H407.578C414.531 83.5156 449.687 85.3125 453.516 120.625C455.156 135.703 452.891 145.859 446.406 151.875C445.503 152.714 444.906 153.83 444.708 155.047C444.509 156.264 444.722 157.512 445.312 158.594Z" fill="#5D5A88"/>
<path d="M410.391 254.453H402.5C398.703 254.453 395.625 257.531 395.625 261.328V269.219C395.625 273.016 398.703 276.094 402.5 276.094H410.391C414.188 276.094 417.266 273.016 417.266 269.219V261.328C417.266 257.531 414.188 254.453 410.391 254.453Z" fill="#5D5A88"/>
<path d="M391.641 25.7812H424.141C425.177 25.7812 426.17 25.3697 426.903 24.6371C427.635 23.9046 428.047 22.911 428.047 21.875C428.047 20.839 427.635 19.8454 426.903 19.1129C426.17 18.3803 425.177 17.9688 424.141 17.9688H391.641C390.605 17.9688 389.611 18.3803 388.878 19.1129C388.146 19.8454 387.734 20.839 387.734 21.875C387.734 22.911 388.146 23.9046 388.878 24.6371C389.611 25.3697 390.605 25.7812 391.641 25.7812ZM377.969 24.6094C378.318 24.9847 378.741 25.2828 379.212 25.4846C379.683 25.6865 380.191 25.7875 380.703 25.7812C381.217 25.7977 381.728 25.7013 382.2 25.4988C382.673 25.2963 383.095 24.9927 383.438 24.6094C383.78 24.2627 384.069 23.8679 384.297 23.4375C384.377 22.9722 384.377 22.4966 384.297 22.0312C384.274 21.0027 383.854 20.0229 383.125 19.2969C382.377 18.6161 381.402 18.2389 380.391 18.2389C379.379 18.2389 378.404 18.6161 377.656 19.2969C376.949 20.0307 376.556 21.012 376.562 22.0312C376.482 22.4966 376.482 22.9722 376.562 23.4375C376.917 23.948 377.403 24.353 377.969 24.6094ZM314.609 299.297L313.906 298.516L272.344 266.484V176.953C272.344 176.444 272.242 175.939 272.045 175.47C271.848 175 271.559 174.575 271.195 174.218C270.831 173.862 270.4 173.581 269.926 173.394C269.453 173.206 268.947 173.115 268.438 173.125H46.875C45.8597 173.125 44.886 173.528 44.1681 174.246C43.4502 174.964 43.0469 175.938 43.0469 176.953V266.172L1.48438 298.281L1.01563 298.828V299.453V299.922H3.18885e-06V492.187C-0.0738943 492.575 -0.0738943 492.972 3.18512e-06 493.359C0.14779 493.755 0.358867 494.125 0.625003 494.453L1.25 495.156L1.95313 495.625C2.49558 495.865 3.07917 495.997 3.67188 496.016H311.25C312.132 496.017 312.988 495.713 313.672 495.156L314.297 494.453C314.319 494.298 314.319 494.14 314.297 493.984V493.359C314.372 492.946 314.372 492.523 314.297 492.109V301.172C314.234 300.543 314.048 299.933 313.75 299.375L314.609 299.297ZM272.109 275.859L304.688 301.25L271.875 325.938L272.109 275.859ZM50.7812 180.781H264.375V331.719L183.516 392.578L157.578 412.031L131.641 392.578L50.7812 331.719V180.781ZM42.9688 275.938V326.016L10.2344 301.25L42.9688 275.938ZM7.8125 308.984L44.2969 336.406L44.9219 336.875L123.047 395.625L7.8125 484.375V308.984ZM15.625 488.672L129.297 400.391L155.312 419.922C155.977 420.423 156.786 420.693 157.617 420.693C158.449 420.693 159.258 420.423 159.922 419.922L185.859 400.391L300 488.281L15.625 488.672ZM307.422 484.375L192.266 395.625L270.391 336.953L271.25 336.328L307.578 308.984L307.422 484.375Z" fill="#5D5A88"/>
<path d="M15.5469 324.609V468.438L110.078 395.703L15.5469 324.609Z" fill="#5D5A88"/>
<path d="M299.609 468.359V324.609L274.531 343.594H274.375L205.156 395.703L299.609 468.359Z" fill="#5D5A88"/>
<path d="M164.531 426.25C162.522 427.747 160.083 428.555 157.578 428.555C155.073 428.555 152.634 427.747 150.625 426.25L129.375 410.625L38.125 480.938H277.031L185.781 410.625L164.531 426.25ZM459.922 324.766C459.615 324.339 459.218 323.985 458.759 323.729C458.3 323.472 457.79 323.319 457.266 323.281C456.745 323.217 456.216 323.268 455.716 323.43C455.217 323.591 454.759 323.861 454.375 324.219L439.766 336.797C439.127 337.505 438.77 338.421 438.76 339.375C438.751 340.328 439.09 341.251 439.714 341.972C440.339 342.692 441.205 343.159 442.149 343.285C443.094 343.411 444.052 343.188 444.844 342.656L451.953 336.406C448.163 357.378 438.173 376.732 423.271 391.968C408.37 407.204 389.242 417.621 368.359 421.875C367.369 422.117 366.508 422.73 365.956 423.588C365.404 424.445 365.201 425.482 365.391 426.484C365.583 427.339 366.058 428.105 366.738 428.657C367.418 429.21 368.264 429.518 369.141 429.531H370C392.473 424.886 413.028 413.587 428.995 397.105C444.962 380.623 455.602 359.718 459.531 337.109L465.156 344.922C465.524 345.403 465.997 345.793 466.538 346.064C467.08 346.335 467.676 346.479 468.281 346.484C469.104 346.491 469.903 346.215 470.547 345.703C470.955 345.403 471.299 345.024 471.559 344.589C471.819 344.155 471.991 343.673 472.064 343.171C472.136 342.67 472.109 342.159 471.982 341.668C471.856 341.177 471.634 340.717 471.328 340.313L459.922 324.766ZM122.891 140.078C123.214 140.507 123.625 140.861 124.097 141.117C124.568 141.373 125.09 141.525 125.625 141.563C126.605 141.562 127.551 141.201 128.281 140.547L142.422 127.578C142.88 127.26 143.264 126.848 143.549 126.369C143.835 125.89 144.014 125.355 144.075 124.801C144.137 124.247 144.079 123.686 143.906 123.156C143.732 122.626 143.448 122.14 143.071 121.729C142.694 121.318 142.233 120.993 141.72 120.775C141.207 120.557 140.653 120.451 140.096 120.465C139.539 120.479 138.991 120.612 138.489 120.855C137.987 121.098 137.544 121.446 137.187 121.875L130.312 128.203C133.601 106.827 143.266 86.9423 158.041 71.1492C172.817 55.3561 192.015 44.3907 213.125 39.6876C213.619 39.577 214.086 39.3697 214.499 39.0776C214.912 38.7855 215.263 38.4144 215.532 37.9858C215.8 37.5572 215.982 37.0795 216.065 36.5805C216.148 36.0814 216.131 35.5708 216.016 35.0782C215.923 34.5806 215.731 34.1068 215.45 33.6854C215.17 33.2641 214.807 32.9038 214.384 32.6265C213.96 32.3491 213.485 32.1603 212.987 32.0714C212.489 31.9826 211.978 31.9955 211.484 32.1095C188.786 37.222 168.167 49.0857 152.34 66.14C136.513 83.1943 126.219 104.64 122.812 127.656L117.187 120.313C116.882 119.908 116.497 119.569 116.057 119.317C115.617 119.065 115.13 118.905 114.626 118.846C114.122 118.788 113.611 118.832 113.125 118.977C112.639 119.122 112.187 119.363 111.797 119.688C111.401 120 111.07 120.387 110.825 120.827C110.579 121.268 110.422 121.752 110.364 122.253C110.306 122.754 110.348 123.261 110.486 123.746C110.625 124.231 110.858 124.684 111.172 125.078L122.891 140.078ZM153.203 294.609H161.953C163.897 294.619 165.774 293.904 167.219 292.604C168.663 291.304 169.571 289.512 169.766 287.578L173.984 217.266C174.068 216.256 173.938 215.239 173.601 214.283C173.264 213.327 172.729 212.453 172.031 211.719C171.323 210.976 170.476 210.379 169.538 209.964C168.599 209.548 167.588 209.322 166.562 209.297H148.906C147.88 209.322 146.869 209.548 145.931 209.964C144.993 210.379 144.145 210.976 143.438 211.719C142.739 212.453 142.204 213.327 141.868 214.283C141.531 215.239 141.4 216.256 141.484 217.266L145.703 287.578C145.891 289.459 146.755 291.208 148.134 292.501C149.513 293.794 151.314 294.543 153.203 294.609ZM161.641 301.641H153.828C151.756 301.641 149.769 302.464 148.304 303.929C146.839 305.394 146.016 307.381 146.016 309.453V317.266C146.016 319.338 146.839 321.325 148.304 322.79C149.769 324.255 151.756 325.078 153.828 325.078H161.641C163.713 325.078 165.7 324.255 167.165 322.79C168.63 321.325 169.453 319.338 169.453 317.266V309.453C169.453 307.381 168.63 305.394 167.165 303.929C165.7 302.464 163.713 301.641 161.641 301.641Z" fill="#8D8BA7"/>
</g>
<defs>
<clipPath id="clip0_226_1060">
<rect width="500" height="500" fill="white"/>
</clipPath>
</defs>
</svg>
