<svg width="60" height="60" viewBox="0 0 60 60" fill="none" xmlns="http://www.w3.org/2000/svg">
<g clip-path="url(#clip0_226_1298)">
<path fill-rule="evenodd" clip-rule="evenodd" d="M42.2882 15H6C5.22884 15 4.49165 15.1455 3.81439 15.4105L29.5551 34.3773C29.8197 34.5723 30.1803 34.5723 30.4449 34.3773L47.7022 21.6615C45.6608 20.1702 44.2496 18.6072 43.2992 17.0584C42.8658 16.3522 42.5363 15.6619 42.2882 15ZM52.424 23.7719L33.1143 38.0001C31.2623 39.3647 28.7377 39.3647 26.8857 38.0001L0.513403 18.5679C0.183374 19.3113 0 20.1342 0 21V54C0 57.3137 2.68629 60 6 60H54C57.3137 60 60 57.3137 60 54V21C60 20.1342 59.8166 19.3113 59.4866 18.5679L58.8796 19.0151C57.4716 20.6055 55.5001 22.1727 52.7808 23.623C52.6657 23.6844 52.5462 23.734 52.424 23.7719Z" fill="#5D5A88"/>
<path d="M60.0004 2.45455C54.8867 2.45455 52.8413 1.09091 51.8185 0C50.7958 1.09091 48.7504 2.45455 43.6367 2.45455V11.1818C43.6367 13.6364 44.6594 18 51.8185 21.8182C58.9776 18 60.0004 13.6364 60.0004 11.1818V2.45455Z" fill="#8D8BA7"/>
</g>
<defs>
<clipPath id="clip0_226_1298">
<rect width="60" height="60" fill="white"/>
</clipPath>
</defs>
</svg>
